G04 Layer_Color=32896*
%FSLAX24Y24*%
%MOIN*%
G70*
G01*
G75*
%ADD20C,0.0100*%
D20*
X6761Y3340D02*
Y2740D01*
X6561Y2940D01*
X6361Y2740D01*
Y3340D01*
X6161Y2740D02*
Y3340D01*
X5861D01*
X5761Y3240D01*
Y3040D01*
X5861Y2940D01*
X6161D01*
X5561Y3340D02*
X5361D01*
X5461D01*
Y2740D01*
X5561D01*
X5361D01*
X9810Y1780D02*
Y2380D01*
X9510D01*
X9410Y2280D01*
Y2080D01*
X9510Y1980D01*
X9810D01*
X9610D02*
X9410Y1780D01*
X9210Y2380D02*
Y1780D01*
X8910D01*
X8810Y1880D01*
Y1980D01*
X8910Y2080D01*
X9210D01*
X8910D01*
X8810Y2180D01*
Y2280D01*
X8910Y2380D01*
X9210D01*
X8211D02*
X8610D01*
Y1780D01*
X8211D01*
X8610Y2080D02*
X8410D01*
X8011Y2280D02*
X7911Y2380D01*
X7711D01*
X7611Y2280D01*
Y2180D01*
X7711Y2080D01*
X7811D01*
X7711D01*
X7611Y1980D01*
Y1880D01*
X7711Y1780D01*
X7911D01*
X8011Y1880D01*
X7411Y2280D02*
X7311Y2380D01*
X7111D01*
X7011Y2280D01*
Y1880D01*
X7111Y1780D01*
X7311D01*
X7411Y1880D01*
Y2280D01*
X6811D02*
X6711Y2380D01*
X6511D01*
X6411Y2280D01*
Y1880D01*
X6511Y1780D01*
X6711D01*
X6811Y1880D01*
Y2280D01*
X6211Y1780D02*
X6011D01*
X6111D01*
Y2380D01*
X6211Y2280D01*
X5112Y2380D02*
Y1780D01*
X4812D01*
X4712Y1880D01*
Y1980D01*
X4812Y2080D01*
X5112D01*
X4812D01*
X4712Y2180D01*
Y2280D01*
X4812Y2380D01*
X5112D01*
X4412Y1780D02*
X4212D01*
X4112Y1880D01*
Y2080D01*
X4212Y2180D01*
X4412D01*
X4512Y2080D01*
Y1880D01*
X4412Y1780D01*
X3812Y2180D02*
X3612D01*
X3512Y2080D01*
Y1780D01*
X3812D01*
X3912Y1880D01*
X3812Y1980D01*
X3512D01*
X3312Y2180D02*
Y1780D01*
Y1980D01*
X3212Y2080D01*
X3112Y2180D01*
X3012D01*
X2312Y2380D02*
Y1780D01*
X2612D01*
X2712Y1880D01*
Y2080D01*
X2612Y2180D01*
X2312D01*
X4674Y11983D02*
Y11583D01*
X4474D01*
X4407Y11650D01*
Y11916D01*
X4474Y11983D01*
X4674D01*
X4207Y11583D02*
X4074D01*
X4007Y11650D01*
Y11783D01*
X4074Y11849D01*
X4207D01*
X4274Y11783D01*
Y11650D01*
X4207Y11583D01*
X3874D02*
Y11849D01*
X3674D01*
X3608Y11783D01*
Y11583D01*
X3408Y12049D02*
Y11916D01*
X3474Y11849D01*
X3141Y11916D02*
Y11849D01*
X3208D01*
X3074D01*
X3141D01*
Y11650D01*
X3074Y11583D01*
X4874Y11196D02*
X5074D01*
X5140Y11130D01*
Y10996D01*
X5074Y10930D01*
X4874D01*
X4674D02*
X4541D01*
X4474Y10996D01*
Y11130D01*
X4541Y11196D01*
X4674D01*
X4740Y11130D01*
Y10996D01*
X4674Y10930D01*
X4341D02*
Y11196D01*
X4141D01*
X4074Y11130D01*
Y10930D01*
X3941D02*
Y11196D01*
X3741D01*
X3674Y11130D01*
Y10930D01*
X3341D02*
X3474D01*
X3541Y10996D01*
Y11130D01*
X3474Y11196D01*
X3341D01*
X3274Y11130D01*
Y11063D01*
X3541D01*
X2874Y11196D02*
X3074D01*
X3141Y11130D01*
Y10996D01*
X3074Y10930D01*
X2874D01*
X2674Y11263D02*
Y11196D01*
X2741D01*
X2608D01*
X2674D01*
Y10996D01*
X2608Y10930D01*
X4107Y10610D02*
Y10543D01*
X4174D01*
X4041D01*
X4107D01*
Y10343D01*
X4041Y10276D01*
X3774D02*
X3641D01*
X3574Y10343D01*
Y10476D01*
X3641Y10543D01*
X3774D01*
X3841Y10476D01*
Y10343D01*
X3774Y10276D01*
X5307Y9890D02*
X5507D01*
X5574Y9823D01*
Y9690D01*
X5507Y9623D01*
X5307D01*
X5107D02*
X4974D01*
X4907Y9690D01*
Y9823D01*
X4974Y9890D01*
X5107D01*
X5174Y9823D01*
Y9690D01*
X5107Y9623D01*
X4774D02*
Y9890D01*
X4707D01*
X4641Y9823D01*
Y9623D01*
Y9823D01*
X4574Y9890D01*
X4507Y9823D01*
Y9623D01*
X4374Y9490D02*
Y9890D01*
X4174D01*
X4107Y9823D01*
Y9690D01*
X4174Y9623D01*
X4374D01*
X3974Y9890D02*
Y9690D01*
X3907Y9623D01*
X3707D01*
Y9890D01*
X3508Y9957D02*
Y9890D01*
X3574D01*
X3441D01*
X3508D01*
Y9690D01*
X3441Y9623D01*
X3041D02*
X3174D01*
X3241Y9690D01*
Y9823D01*
X3174Y9890D01*
X3041D01*
X2974Y9823D01*
Y9757D01*
X3241D01*
X2841Y9890D02*
Y9623D01*
Y9757D01*
X2774Y9823D01*
X2708Y9890D01*
X2641D01*
X2441Y9623D02*
X2241D01*
X2175Y9690D01*
X2241Y9757D01*
X2375D01*
X2441Y9823D01*
X2375Y9890D01*
X2175D01*
M02*
