G04 Layer_Physical_Order=1*
G04 Layer_Color=255*
%FSLAX24Y24*%
%MOIN*%
G70*
G01*
G75*
%ADD10O,0.0402X0.0787*%
%ADD11O,0.0598X0.0902*%
%ADD12R,0.0091X0.0394*%
%ADD13R,0.0276X0.0354*%
%ADD14R,0.0236X0.0197*%
%ADD15R,0.0197X0.0236*%
%ADD16O,0.0866X0.0236*%
%ADD17R,0.1063X0.1063*%
%ADD18O,0.0118X0.0335*%
%ADD19O,0.0335X0.0118*%
%ADD20C,0.0100*%
%ADD21C,0.0150*%
%ADD22C,0.0984*%
%ADD23C,0.0709*%
%ADD24C,0.0591*%
%ADD25R,0.0591X0.0591*%
%ADD26C,0.0300*%
D10*
X-100Y10080D02*
D03*
X-1108D02*
D03*
X-2100D02*
D03*
D11*
X10650Y9031D02*
D03*
X7650D02*
D03*
X9650D02*
D03*
X8650D02*
D03*
Y12590D02*
D03*
X9658D02*
D03*
X7650D02*
D03*
X10650D02*
D03*
D12*
X5244Y10140D02*
D03*
X5089D02*
D03*
X4934D02*
D03*
X4779D02*
D03*
X4624D02*
D03*
X4469D02*
D03*
X4314D02*
D03*
X4159D02*
D03*
X4004D02*
D03*
X3850D02*
D03*
X3695D02*
D03*
X3540D02*
D03*
X3385D02*
D03*
X3230D02*
D03*
X3075D02*
D03*
X2920D02*
D03*
X2765D02*
D03*
X2609D02*
D03*
X2455D02*
D03*
D13*
X9385Y7490D02*
D03*
X9975D02*
D03*
X9595Y4790D02*
D03*
X10185D02*
D03*
X7255Y6170D02*
D03*
X7845D02*
D03*
X9935Y1660D02*
D03*
X10525D02*
D03*
X9835Y3210D02*
D03*
X10425D02*
D03*
D14*
X4827Y6420D02*
D03*
X4433D02*
D03*
D15*
X6170Y3097D02*
D03*
Y2703D02*
D03*
X7920Y4777D02*
D03*
Y4383D02*
D03*
X7070Y4197D02*
D03*
Y3803D02*
D03*
D16*
X6975Y3230D02*
D03*
Y2730D02*
D03*
Y2230D02*
D03*
Y1730D02*
D03*
X8865Y3230D02*
D03*
Y2730D02*
D03*
Y2230D02*
D03*
Y1730D02*
D03*
D17*
X5258Y4356D02*
D03*
D18*
X4874Y5124D02*
D03*
X5130D02*
D03*
X5386D02*
D03*
X5642D02*
D03*
Y3588D02*
D03*
X5386D02*
D03*
X5130D02*
D03*
X4874D02*
D03*
D19*
X6025Y4740D02*
D03*
Y4484D02*
D03*
Y4228D02*
D03*
Y3972D02*
D03*
X4490D02*
D03*
Y4228D02*
D03*
Y4484D02*
D03*
Y4740D02*
D03*
D20*
X10770Y8610D02*
X10860Y8700D01*
X10770Y2410D02*
Y8610D01*
X10535Y2175D02*
X10770Y2410D01*
X8760Y7190D02*
X10515Y5435D01*
Y3175D02*
Y5435D01*
X3540Y9660D02*
X3690Y9810D01*
X3380Y9500D02*
X3540Y9660D01*
X3070Y9680D02*
X3230Y9840D01*
X2920Y9530D02*
X3070Y9680D01*
X2640Y9250D02*
X2920Y9530D01*
X2460Y9640D02*
Y9960D01*
X2360Y9540D02*
X2460Y9640D01*
X2450Y9540D02*
X2600Y9690D01*
Y10000D01*
X2450Y9540D02*
X2760Y9850D01*
Y10000D01*
X4160Y7960D02*
Y10140D01*
X2850Y6650D02*
X4160Y7960D01*
X4314Y7854D02*
Y10140D01*
X3040Y6580D02*
X4314Y7854D01*
X4460Y7730D02*
Y10140D01*
X4624Y7634D02*
Y10140D01*
X4780Y7510D02*
Y10130D01*
X5250Y9020D02*
Y10140D01*
Y9020D02*
X5690Y8580D01*
X5100Y8690D02*
Y10140D01*
Y8690D02*
X5380Y8410D01*
X3560Y6290D02*
X4780Y7510D01*
X3390Y6400D02*
X4624Y7634D01*
X4930Y7200D02*
Y10120D01*
X3690Y9810D02*
Y10110D01*
X3540Y9660D02*
Y10080D01*
X3380Y9500D02*
Y10090D01*
X3230Y9840D02*
Y10090D01*
X3070Y9680D02*
Y10110D01*
X2920Y9530D02*
Y10100D01*
X10750Y9001D02*
Y12560D01*
X9750Y9001D02*
X9758Y9009D01*
Y12560D01*
X8760Y7190D02*
Y9001D01*
X8750D02*
Y12560D01*
X7770Y9021D02*
Y12490D01*
X7750Y12510D02*
X7770Y12490D01*
X7750Y12510D02*
Y12560D01*
X9750Y9001D02*
X9975Y8776D01*
X7341Y9001D02*
X7750D01*
X6615Y2740D02*
X6675Y2680D01*
X5820Y2740D02*
X6615D01*
X5720Y2840D02*
X5820Y2740D01*
X6800Y1740D02*
X6860Y1680D01*
X5110Y1740D02*
X6800D01*
X4420Y2430D02*
X5110Y1740D01*
X6595Y2260D02*
X6665Y2190D01*
X5120Y2260D02*
X6595D01*
X2850Y4530D02*
X5120Y2260D01*
X6825Y3260D02*
X6905Y3180D01*
X6373Y3260D02*
X6825D01*
X6190Y3077D02*
X6373Y3260D01*
X9595Y4285D02*
Y4790D01*
X8865Y2730D02*
X9760D01*
X8560D02*
X8865D01*
X9750Y2260D02*
X9820Y2190D01*
X8875Y2260D02*
X9750D01*
X8795Y2180D02*
X8875Y2260D01*
X9760Y2730D02*
X9840Y2650D01*
X6490Y3810D02*
X7920D01*
X6338Y3962D02*
X6490Y3810D01*
X9975Y7490D02*
Y8776D01*
X9200Y8010D02*
X9385Y7825D01*
Y7490D02*
Y7825D01*
X2850Y4530D02*
Y6650D01*
X10240Y3880D02*
Y4790D01*
X3390Y5090D02*
Y6400D01*
X3220Y6490D02*
X4460Y7730D01*
X3220Y4970D02*
Y6490D01*
X3040Y4890D02*
Y6580D01*
X5410Y7070D02*
X7341Y9001D01*
X4462Y3970D02*
X4470Y3962D01*
X6005D02*
X6338D01*
X8755Y3230D02*
X9915D01*
X8795Y1730D02*
X9955D01*
X6005Y4218D02*
X6458D01*
X6005Y4730D02*
X6030Y4754D01*
X7920D01*
Y6170D01*
X6773Y4474D02*
X7070Y4177D01*
X6005Y4474D02*
X6773D01*
X7306D01*
X4850Y6430D02*
X4850Y6430D01*
X3040Y4890D02*
X3960Y3970D01*
X4462D01*
X3220Y4970D02*
X3972Y4218D01*
X4470D01*
X3390Y5090D02*
X4006Y4474D01*
X4470D01*
X3560Y5220D02*
Y6290D01*
Y5220D02*
X4050Y4730D01*
X4470D01*
X10535Y1560D02*
Y2175D01*
X7920Y3900D02*
Y4283D01*
X7306Y4474D02*
X7530Y4250D01*
Y4130D02*
Y4250D01*
X5340Y7140D02*
X5450D01*
X4433Y6420D02*
Y6683D01*
X5690Y7940D01*
Y8580D01*
X4827Y6420D02*
Y6627D01*
X5340Y7140D01*
X6750Y5570D02*
X6770Y5550D01*
X5910Y5570D02*
X6750D01*
X5670Y2840D02*
X5720D01*
X4420Y2430D02*
Y2460D01*
X5130Y5124D02*
Y5520D01*
X4920Y5730D02*
X5130Y5520D01*
X5642Y5124D02*
Y5302D01*
X5910Y5570D01*
X5386Y5124D02*
Y5861D01*
X4827Y6420D02*
X5386Y5861D01*
X5167Y6090D02*
X7250D01*
D21*
X2560Y8680D02*
X3380Y9500D01*
X-830Y8680D02*
X2560D01*
X2370Y8980D02*
X2920Y9530D01*
X-190Y8980D02*
X2370D01*
X-1030Y9820D02*
X-190Y8980D01*
X2150Y9250D02*
X2440Y9540D01*
X600Y9250D02*
X2160D01*
X-155Y10005D02*
X600Y9250D01*
X-1030Y9820D02*
Y10130D01*
X-2155Y10005D02*
X-830Y8680D01*
D22*
X3049Y800D02*
D03*
X3049Y7890D02*
D03*
X7380D02*
D03*
Y800D02*
D03*
D23*
X5973Y12222D02*
D03*
X1690D02*
D03*
X5973Y10450D02*
D03*
X1690D02*
D03*
D24*
X1900Y4170D02*
D03*
Y5170D02*
D03*
Y6170D02*
D03*
D25*
Y7170D02*
D03*
D26*
X9590Y4190D02*
D03*
X7900Y3900D02*
D03*
X9180Y8000D02*
D03*
X6520Y4180D02*
D03*
X4920Y5730D02*
D03*
X5340Y7140D02*
D03*
X7530Y4130D02*
D03*
X5720Y8150D02*
D03*
X6480Y6050D02*
D03*
X5380Y8410D02*
D03*
X9820Y2190D02*
D03*
X6770Y5550D02*
D03*
X5670Y2840D02*
D03*
X4420Y2460D02*
D03*
X10240Y3880D02*
D03*
X9840Y2650D02*
D03*
M02*
