G04 Layer_Color=8388736*
%FSLAX24Y24*%
%MOIN*%
G70*
G01*
G75*
%ADD30O,0.0482X0.0867*%
%ADD31O,0.0678X0.0982*%
%ADD32R,0.0171X0.0474*%
%ADD33R,0.0356X0.0434*%
%ADD34R,0.0316X0.0277*%
%ADD35R,0.0277X0.0316*%
%ADD36O,0.0946X0.0316*%
%ADD37R,0.1143X0.1143*%
%ADD38O,0.0198X0.0415*%
%ADD39O,0.0415X0.0198*%
%ADD40C,0.1064*%
%ADD41C,0.0789*%
%ADD42C,0.0671*%
%ADD43R,0.0671X0.0671*%
D30*
X-100Y10080D02*
D03*
X-1108D02*
D03*
X-2100D02*
D03*
D31*
X10650Y9031D02*
D03*
X7650D02*
D03*
X9650D02*
D03*
X8650D02*
D03*
Y12590D02*
D03*
X9658D02*
D03*
X7650D02*
D03*
X10650D02*
D03*
D32*
X5244Y10140D02*
D03*
X5089D02*
D03*
X4934D02*
D03*
X4779D02*
D03*
X4624D02*
D03*
X4469D02*
D03*
X4314D02*
D03*
X4159D02*
D03*
X4004D02*
D03*
X3850D02*
D03*
X3695D02*
D03*
X3540D02*
D03*
X3385D02*
D03*
X3230D02*
D03*
X3075D02*
D03*
X2920D02*
D03*
X2765D02*
D03*
X2609D02*
D03*
X2455D02*
D03*
D33*
X9385Y7490D02*
D03*
X9975D02*
D03*
X9595Y4790D02*
D03*
X10185D02*
D03*
X7255Y6170D02*
D03*
X7845D02*
D03*
X9935Y1660D02*
D03*
X10525D02*
D03*
X9835Y3210D02*
D03*
X10425D02*
D03*
D34*
X4827Y6420D02*
D03*
X4433D02*
D03*
D35*
X6170Y3097D02*
D03*
Y2703D02*
D03*
X7920Y4777D02*
D03*
Y4383D02*
D03*
X7070Y4197D02*
D03*
Y3803D02*
D03*
D36*
X6975Y3230D02*
D03*
Y2730D02*
D03*
Y2230D02*
D03*
Y1730D02*
D03*
X8865Y3230D02*
D03*
Y2730D02*
D03*
Y2230D02*
D03*
Y1730D02*
D03*
D37*
X5258Y4356D02*
D03*
D38*
X4874Y5124D02*
D03*
X5130D02*
D03*
X5386D02*
D03*
X5642D02*
D03*
Y3588D02*
D03*
X5386D02*
D03*
X5130D02*
D03*
X4874D02*
D03*
D39*
X6025Y4740D02*
D03*
Y4484D02*
D03*
Y4228D02*
D03*
Y3972D02*
D03*
X4490D02*
D03*
Y4228D02*
D03*
Y4484D02*
D03*
Y4740D02*
D03*
D40*
X3049Y800D02*
D03*
X3049Y7890D02*
D03*
X7380D02*
D03*
Y800D02*
D03*
D41*
X5973Y12222D02*
D03*
X1690D02*
D03*
X5973Y10450D02*
D03*
X1690D02*
D03*
D42*
X1900Y4170D02*
D03*
Y5170D02*
D03*
Y6170D02*
D03*
D43*
Y7170D02*
D03*
M02*
