G04 Layer_Color=8421504*
%FSLAX24Y24*%
%MOIN*%
G70*
G01*
G75*
%ADD10O,0.0402X0.0787*%
%ADD11O,0.0598X0.0902*%
%ADD12R,0.0091X0.0394*%
%ADD13R,0.0276X0.0354*%
%ADD14R,0.0236X0.0197*%
%ADD15R,0.0197X0.0236*%
%ADD16O,0.0866X0.0236*%
%ADD17R,0.1063X0.1063*%
%ADD18O,0.0118X0.0335*%
%ADD19O,0.0335X0.0118*%
D10*
X-100Y10080D02*
D03*
X-1108D02*
D03*
X-2100D02*
D03*
D11*
X10650Y9031D02*
D03*
X7650D02*
D03*
X9650D02*
D03*
X8650D02*
D03*
Y12590D02*
D03*
X9658D02*
D03*
X7650D02*
D03*
X10650D02*
D03*
D12*
X5244Y10140D02*
D03*
X5089D02*
D03*
X4934D02*
D03*
X4779D02*
D03*
X4624D02*
D03*
X4469D02*
D03*
X4314D02*
D03*
X4159D02*
D03*
X4004D02*
D03*
X3850D02*
D03*
X3695D02*
D03*
X3540D02*
D03*
X3385D02*
D03*
X3230D02*
D03*
X3075D02*
D03*
X2920D02*
D03*
X2765D02*
D03*
X2609D02*
D03*
X2455D02*
D03*
D13*
X9385Y7490D02*
D03*
X9975D02*
D03*
X9595Y4790D02*
D03*
X10185D02*
D03*
X7255Y6170D02*
D03*
X7845D02*
D03*
X9935Y1660D02*
D03*
X10525D02*
D03*
X9835Y3210D02*
D03*
X10425D02*
D03*
D14*
X4827Y6420D02*
D03*
X4433D02*
D03*
D15*
X6170Y3097D02*
D03*
Y2703D02*
D03*
X7920Y4777D02*
D03*
Y4383D02*
D03*
X7070Y4197D02*
D03*
Y3803D02*
D03*
D16*
X6975Y3230D02*
D03*
Y2730D02*
D03*
Y2230D02*
D03*
Y1730D02*
D03*
X8865Y3230D02*
D03*
Y2730D02*
D03*
Y2230D02*
D03*
Y1730D02*
D03*
D17*
X5258Y4356D02*
D03*
D18*
X4874Y5124D02*
D03*
X5130D02*
D03*
X5386D02*
D03*
X5642D02*
D03*
Y3588D02*
D03*
X5386D02*
D03*
X5130D02*
D03*
X4874D02*
D03*
D19*
X6025Y4740D02*
D03*
Y4484D02*
D03*
Y4228D02*
D03*
Y3972D02*
D03*
X4490D02*
D03*
Y4228D02*
D03*
Y4484D02*
D03*
Y4740D02*
D03*
M02*
