M48
;Layer_Color=9474304
;FILE_FORMAT=2:4
INCH,LZ
;TYPE=PLATED
T1F00S00C0.0200
T2F00S00C0.0354
T3F00S00C0.0512
;TYPE=NON_PLATED
T4F00S00C0.0984
%
T01
X00442Y00246
X00567Y00284
X00652Y00418
X00753Y00413
X0079Y0039
X00959Y00419
X01024Y00388
X00984Y00265
X00982Y00219
X00677Y00555
X00648Y00605
X00492Y00573
X00534Y00714
X00538Y00841
X00572Y00815
X00918Y008
T02
X0019Y00417
Y00517
Y00617
Y00717
T03
X005973Y01045
Y012222
X00169
Y01045
T04
X003049Y0008
X00738
Y00789
X003049
M30
