M48
;Layer_Color=9474304
;FILE_FORMAT=2:4
INCH,LZ
;TYPE=PLATED
T1F00S00C0.0200
T3F00S00C0.0354
;TYPE=NON_PLATED
T4F00S00C0.1024
%
T01
X00442Y00246
X00567Y00284
X00652Y00418
X00753Y00413
X0079Y0039
X00959Y00419
X01024Y00388
X00984Y00265
X00982Y00219
X00999Y00798
X00918Y008
X00572Y00815
X00538Y00841
X00534Y00714
X00492Y00573
X00648Y00605
X00677Y00555
T03
X0019Y00417
Y00517
X00797Y00988
X00897
X00997
X01097
X-00019Y00997
X-00119
X-00219
X0019Y00717
Y00617
T04
X00305Y00082
X00738Y0008
Y00789
X003049
M30
